<svg width="186" height="138" viewBox="0 0 186 138" fill="none" xmlns="http://www.w3.org/2000/svg">
<path d="M68.6623 55.0214C70.0859 44.6469 80.382 36.5 92.9934 36.5C105.605 36.5 115.901 44.6468 117.324 55.0214C117.431 55.7988 116.794 56.5 115.933 56.5H70.0538C69.1929 56.5 68.5556 55.7988 68.6623 55.0214Z" fill="#F5AD41" fill-opacity="0.65" stroke="#FA963A"/>
<path d="M70.0831 71.7915L115.734 71.7915C116.528 71.7915 117.086 72.3688 117.019 73.0014C116.66 76.4429 113.862 79.8326 109.485 82.3926C105.127 84.9415 99.2968 86.6076 93.0765 86.6442C86.8855 86.6806 81.2348 85.2194 76.917 82.7941C72.5934 80.3654 69.6498 76.9981 68.7685 73.2385C68.5981 72.5115 69.1978 71.7915 70.0831 71.7915Z" fill="#F9EDD0" stroke="#F19408"/>
<path d="M67 68C67 66.8954 67.8954 66 69 66H117C118.105 66 119 66.8954 119 68V69C119 70.1046 118.105 71 117 71H93H69C67.8954 71 67 70.1046 67 69V68Z" fill="#885A16"/>
<ellipse cx="81.558" cy="48.0335" rx="0.558002" ry="0.966516" transform="rotate(40 81.558 48.0335)" fill="#FFFAFA"/>
<ellipse cx="81.0487" cy="52.0991" rx="0.558002" ry="0.966516" transform="rotate(40 81.0487 52.0991)" fill="#FFFAFA"/>
<ellipse cx="87.0487" cy="45.0991" rx="0.558002" ry="0.966516" transform="rotate(40 87.0487 45.0991)" fill="#FFFAFA"/>
<ellipse cx="88.0487" cy="48.0991" rx="0.558002" ry="0.966516" transform="rotate(40 88.0487 48.0991)" fill="#FFFAFA"/>
<ellipse cx="87.0487" cy="52.0991" rx="0.558002" ry="0.966516" transform="rotate(40 87.0487 52.0991)" fill="#FFFAFA"/>
<ellipse cx="93.0487" cy="39.7174" rx="0.558002" ry="0.966516" transform="rotate(80 93.0487 39.7174)" fill="#FFFAFA"/>
<ellipse cx="98.116" cy="40.9665" rx="0.558002" ry="0.966516" transform="rotate(120 98.116 40.9665)" fill="#FFFAFA"/>
<ellipse cx="98.116" cy="44.9665" rx="0.558002" ry="0.966516" transform="rotate(120 98.116 44.9665)" fill="#FFFAFA"/>
<ellipse cx="92.116" cy="43.9665" rx="0.558002" ry="0.966516" transform="rotate(120 92.116 43.9665)" fill="#FFFAFA"/>
<ellipse cx="94.116" cy="51.9665" rx="0.558002" ry="0.966516" transform="rotate(120 94.116 51.9665)" fill="#FFFAFA"/>
<ellipse cx="100.116" cy="50.9665" rx="0.558002" ry="0.966516" transform="rotate(120 100.116 50.9665)" fill="#FFFAFA"/>
<ellipse cx="97.116" cy="47.9665" rx="0.558002" ry="0.966516" transform="rotate(120 97.116 47.9665)" fill="#FFFAFA"/>
<ellipse cx="106.116" cy="43.9665" rx="0.558002" ry="0.966516" transform="rotate(120 106.116 43.9665)" fill="#FFFAFA"/>
<ellipse cx="105.116" cy="47.9665" rx="0.558002" ry="0.966516" transform="rotate(120 105.116 47.9665)" fill="#FFFAFA"/>
<ellipse cx="105.116" cy="52.9665" rx="0.558002" ry="0.966516" transform="rotate(120 105.116 52.9665)" fill="#FFFAFA"/>
<ellipse cx="110.116" cy="51.9665" rx="0.558002" ry="0.966516" transform="rotate(120 110.116 51.9665)" fill="#FFFAFA"/>
<ellipse cx="110.116" cy="46.9665" rx="0.558002" ry="0.966516" transform="rotate(120 110.116 46.9665)" fill="#FFFAFA"/>
<ellipse cx="113.558" cy="50.9665" rx="0.558002" ry="0.966516" transform="rotate(180 113.558 50.9665)" fill="#FFFAFA"/>
<ellipse cx="91.558" cy="47.9665" rx="0.558002" ry="0.966516" transform="rotate(180 91.558 47.9665)" fill="#FFFAFA"/>
<ellipse cx="102.116" cy="44.9665" rx="0.558002" ry="0.966516" transform="rotate(120 102.116 44.9665)" fill="#FFFAFA"/>
<ellipse cx="80.116" cy="42.9665" rx="0.558002" ry="0.966516" transform="rotate(-120 80.116 42.9665)" fill="#FFFAFA"/>
<ellipse cx="73.116" cy="49.9665" rx="0.558002" ry="0.966516" transform="rotate(-120 73.116 49.9665)" fill="#FFFAFA"/>
<ellipse cx="77.1022" cy="46.9426" rx="0.530391" ry="0.966516" transform="rotate(-120 77.1022 46.9426)" fill="#FFFAFA"/>
<ellipse cx="76.1975" cy="52.1076" rx="0.720892" ry="0.966516" transform="rotate(-120 76.1975 52.1076)" fill="#FFFAFA"/>
<ellipse cx="83.116" cy="42.9665" rx="0.558002" ry="0.966516" transform="rotate(-120 83.116 42.9665)" fill="#FFFAFA"/>
<ellipse cx="88.116" cy="40.9665" rx="0.558002" ry="0.966516" transform="rotate(-120 88.116 40.9665)" fill="#FFFAFA"/>
<g filter="url(#filter0_d_6_11)">
<path d="M69 65L117 64.9913" stroke="#F9CB54" stroke-width="3" stroke-linecap="round"/>
</g>
<ellipse cx="74" cy="59.5" rx="4" ry="2.5" fill="#98CE25"/>
<ellipse cx="98.5" cy="59.5" rx="3.5" ry="2.5" fill="#98CE25"/>
<ellipse cx="112.5" cy="59.5" rx="3.5" ry="2.5" fill="#98CE25"/>
<ellipse cx="106" cy="59.5" rx="4" ry="2.5" fill="#98CE25"/>
<ellipse cx="81" cy="59.5" rx="4" ry="2.5" fill="#98CE25"/>
<ellipse cx="90" cy="59.5" rx="5" ry="2.5" fill="#98CE25"/>
<rect x="68" y="60" width="51" height="4" rx="2" fill="#F22727"/>
<defs>
<filter id="filter0_d_6_11" x="0.5" y="0.491264" width="185" height="137.009" filterUnits="userSpaceOnUse" color-interpolation-filters="sRGB">
<feFlood flood-opacity="0" result="BackgroundImageFix"/>
<feColorMatrix in="SourceAlpha" type="matrix" values="0 0 0 0 0 0 0 0 0 0 0 0 0 0 0 0 0 0 127 0" result="hardAlpha"/>
<feOffset dy="4"/>
<feGaussianBlur stdDeviation="33.5"/>
<feComposite in2="hardAlpha" operator="out"/>
<feColorMatrix type="matrix" values="0 0 0 0 0.633432 0 0 0 0 0.641667 0 0 0 0 0.229931 0 0 0 0.25 0"/>
<feBlend mode="normal" in2="BackgroundImageFix" result="effect1_dropShadow_6_11"/>
<feBlend mode="normal" in="SourceGraphic" in2="effect1_dropShadow_6_11" result="shape"/>
</filter>
</defs>
</svg>
