<svg width="209" height="146" viewBox="0 0 209 146" fill="none" xmlns="http://www.w3.org/2000/svg">
<path d="M0.620371 47.9808C1.76795 34.7905 9.94897 22.9281 22.5751 14.3488C35.1993 5.7707 52.2367 0.5 71 0.5C89.7633 0.5 106.801 5.7707 119.425 14.3488C132.051 22.9281 140.232 34.7905 141.38 47.9808C141.451 48.796 140.79 49.5 139.936 49.5H2.06432C1.21006 49.5 0.549447 48.796 0.620371 47.9808Z" fill="#F5AD41" fill-opacity="0.65" stroke="#FA963A"/>
<path d="M86.1909 87.0195L133.668 87.0195C134.459 87.0195 135.031 87.599 134.977 88.2516C134.663 92.0686 131.763 95.816 127.218 98.6411C122.688 101.457 116.606 103.299 110.117 103.339C103.651 103.38 97.7528 101.76 93.2613 99.0743C88.7659 96.3864 85.715 92.6554 84.8524 88.4808C84.6985 87.7363 85.3116 87.0195 86.1909 87.0195Z" fill="#F9EDD0" stroke="#F19408"/>
<path d="M83.0741 82.7383C83.0741 81.6337 83.9695 80.7383 85.0741 80.7383H135C136.105 80.7383 137 81.6337 137 82.7383V84.201C137 85.3056 136.105 86.201 135 86.201H110.037H85.0741C83.9695 86.201 83.0741 85.3056 83.0741 84.201V82.7383Z" fill="#885A16"/>
<g filter="url(#filter0_d_6_11)">
<path d="M90.5 73.5L140.278 73.4905" stroke="#F9CB54" stroke-width="3" stroke-linecap="round"/>
</g>
<ellipse cx="0.591665" cy="1.03414" rx="0.591665" ry="1.03414" transform="matrix(0.749218 0.662323 -0.623006 0.782217 69.113 25.6688)" fill="#FFFAFA"/>
<ellipse cx="0.591665" cy="1.03414" rx="0.591665" ry="1.03414" transform="matrix(0.749218 0.662323 -0.623006 0.782217 68.5848 30.1106)" fill="#FFFAFA"/>
<ellipse cx="0.591665" cy="1.03414" rx="0.591665" ry="1.03414" transform="matrix(0.749218 0.662323 -0.623006 0.782217 74.807 22.4628)" fill="#FFFAFA"/>
<ellipse cx="0.591665" cy="1.03414" rx="0.591665" ry="1.03414" transform="matrix(0.749218 0.662323 -0.623006 0.782217 75.8441 25.7404)" fill="#FFFAFA"/>
<ellipse cx="0.591665" cy="1.03414" rx="0.591665" ry="1.03414" transform="matrix(0.749218 0.662323 -0.623006 0.782217 74.807 30.1106)" fill="#FFFAFA"/>
<ellipse cx="0.608735" cy="1.00397" rx="0.608735" ry="1.00397" transform="matrix(0.165071 0.986282 -0.98318 0.182642 81.7149 17)" fill="#FFFAFA"/>
<ellipse cx="0.602051" cy="1.01599" rx="0.602051" ry="1.01599" transform="matrix(-0.480581 0.876951 -0.854365 -0.519674 87.2406 19.1485)" fill="#FFFAFA"/>
<ellipse cx="0.602051" cy="1.01599" rx="0.602051" ry="1.01599" transform="matrix(-0.480581 0.876951 -0.854365 -0.519674 87.2406 23.5187)" fill="#FFFAFA"/>
<ellipse cx="0.602051" cy="1.01599" rx="0.602051" ry="1.01599" transform="matrix(-0.480581 0.876951 -0.854365 -0.519674 81.0184 22.4262)" fill="#FFFAFA"/>
<ellipse cx="0.602051" cy="1.01599" rx="0.602051" ry="1.01599" transform="matrix(-0.480581 0.876951 -0.854365 -0.519674 83.0925 31.1666)" fill="#FFFAFA"/>
<ellipse cx="0.602051" cy="1.01599" rx="0.602051" ry="1.01599" transform="matrix(-0.480581 0.876951 -0.854365 -0.519674 89.3147 30.074)" fill="#FFFAFA"/>
<ellipse cx="0.602051" cy="1.01599" rx="0.602051" ry="1.01599" transform="matrix(-0.480581 0.876951 -0.854365 -0.519674 86.2036 26.7964)" fill="#FFFAFA"/>
<ellipse cx="0.602051" cy="1.01599" rx="0.602051" ry="1.01599" transform="matrix(-0.480581 0.876951 -0.854365 -0.519674 95.5369 22.4262)" fill="#FFFAFA"/>
<ellipse cx="0.602051" cy="1.01599" rx="0.602051" ry="1.01599" transform="matrix(-0.480581 0.876951 -0.854365 -0.519674 94.4999 26.7964)" fill="#FFFAFA"/>
<ellipse cx="0.602051" cy="1.01599" rx="0.602051" ry="1.01599" transform="matrix(-0.480581 0.876951 -0.854365 -0.519674 94.4999 32.2591)" fill="#FFFAFA"/>
<ellipse cx="0.602051" cy="1.01599" rx="0.602051" ry="1.01599" transform="matrix(-0.480581 0.876951 -0.854365 -0.519674 99.6851 31.1666)" fill="#FFFAFA"/>
<ellipse cx="0.602051" cy="1.01599" rx="0.602051" ry="1.01599" transform="matrix(-0.480581 0.876951 -0.854365 -0.519674 99.6851 25.7038)" fill="#FFFAFA"/>
<ellipse cx="79.2824" cy="26.7964" rx="0.578669" ry="1.05597" transform="rotate(180 79.2824 26.7964)" fill="#FFFAFA"/>
<ellipse cx="0.602051" cy="1.01599" rx="0.602051" ry="1.01599" transform="matrix(-0.480581 0.876951 -0.854365 -0.519674 91.3888 23.5187)" fill="#FFFAFA"/>
<ellipse cx="0.602051" cy="1.01599" rx="0.602051" ry="1.01599" transform="matrix(-0.480581 -0.876951 0.854365 -0.519674 59.5787 30.0374)" fill="#FFFAFA"/>
<ellipse cx="0.57226" cy="1.01599" rx="0.57226" ry="1.01599" transform="matrix(-0.480581 -0.876951 0.854365 -0.519674 63.6982 26.7075)" fill="#FFFAFA"/>
<ellipse cx="0.7778" cy="1.01599" rx="0.7778" ry="1.01599" transform="matrix(-0.480581 -0.876951 0.854365 -0.519674 62.8587 32.5308)" fill="#FFFAFA"/>
<ellipse cx="0.602051" cy="1.01599" rx="0.602051" ry="1.01599" transform="matrix(-0.480581 -0.876951 0.854365 -0.519674 69.949 22.3896)" fill="#FFFAFA"/>
<rect x="84.1111" y="74.1829" width="52.8889" height="4.37021" rx="2.18511" fill="#F22727"/>
<defs>
<filter id="filter0_d_6_11" x="22" y="8.99046" width="186.778" height="137.01" filterUnits="userSpaceOnUse" color-interpolation-filters="sRGB">
<feFlood flood-opacity="0" result="BackgroundImageFix"/>
<feColorMatrix in="SourceAlpha" type="matrix" values="0 0 0 0 0 0 0 0 0 0 0 0 0 0 0 0 0 0 127 0" result="hardAlpha"/>
<feOffset dy="4"/>
<feGaussianBlur stdDeviation="33.5"/>
<feComposite in2="hardAlpha" operator="out"/>
<feColorMatrix type="matrix" values="0 0 0 0 0.633432 0 0 0 0 0.641667 0 0 0 0 0.229931 0 0 0 0.25 0"/>
<feBlend mode="normal" in2="BackgroundImageFix" result="effect1_dropShadow_6_11"/>
<feBlend mode="normal" in="SourceGraphic" in2="effect1_dropShadow_6_11" result="shape"/>
</filter>
</defs>
</svg>
